REM DIRINDEX 1\2,1\3,1\4
REM DIRNAME folder01,folder02,folder03,folder04
TITLE ""
FILE "DISC3Track16.mp3" MP3
  TRACK 01 AUDIO
    TITLE "0:"
    INDEX 01 00:00:00
  TRACK 02 AUDIO
    TITLE "4:cjc105_4896"
    INDEX 01 00:00:19
  TRACK 03 AUDIO
    TITLE "0:"
    INDEX 01 00:01:60
  TRACK 04 AUDIO
    TITLE "2:cjc105_4897"
    INDEX 01 00:02:34
  TRACK 05 AUDIO
    TITLE "3:cjc105_4898"
    INDEX 01 00:03:72
  TRACK 06 AUDIO
    TITLE "0:"
    INDEX 01 00:05:36
  TRACK 07 AUDIO
    TITLE "2:cjc105_4899"
    INDEX 01 00:05:50
  TRACK 08 AUDIO
    TITLE "3:cjc105_4900"
    INDEX 01 00:07:09
  TRACK 09 AUDIO
    TITLE "0:"
    INDEX 01 00:08:52
  TRACK 10 AUDIO
    TITLE "2:cjc105_4901"
    INDEX 01 00:08:72
  TRACK 11 AUDIO
    TITLE "3:cjc105_4902"
    INDEX 01 00:10:41
  TRACK 12 AUDIO
    TITLE "0:"
    INDEX 01 00:12:03
  TRACK 13 AUDIO
    TITLE "2:cjc105_4903"
    INDEX 01 00:12:24
  TRACK 14 AUDIO
    TITLE "3:cjc105_4904"
    INDEX 01 00:13:61
  TRACK 15 AUDIO
    TITLE "0:"
    INDEX 01 00:15:30
  TRACK 16 AUDIO
    TITLE "2:cjc105_4905"
    INDEX 01 00:15:54
  TRACK 17 AUDIO
    TITLE "3:cjc105_4906"
    INDEX 01 00:16:73
  TRACK 18 AUDIO
    TITLE "0:"
    INDEX 01 00:18:21
  TRACK 19 AUDIO
    TITLE "2:cjc105_4907"
    INDEX 01 00:18:41
  TRACK 20 AUDIO
    TITLE "3:cjc105_4908"
    INDEX 01 00:19:69
  TRACK 21 AUDIO
    TITLE "0:"
    INDEX 01 00:21:31
  TRACK 22 AUDIO
    TITLE "2:cjc105_4909"
    INDEX 01 00:21:53
  TRACK 23 AUDIO
    TITLE "3:cjc105_4910"
    INDEX 01 00:23:03
  TRACK 24 AUDIO
    TITLE "0:"
    INDEX 01 00:24:41
  TRACK 25 AUDIO
    TITLE "2:cjc105_4911"
    INDEX 01 00:24:59
  TRACK 26 AUDIO
    TITLE "3:cjc105_4912"
    INDEX 01 00:26:32
  TRACK 27 AUDIO
    TITLE "0:"
    INDEX 01 00:27:67
  TRACK 28 AUDIO
    TITLE "2:cjc105_4913"
    INDEX 01 00:28:12
  TRACK 29 AUDIO
    TITLE "3:cjc105_4914"
    INDEX 01 00:29:44
  TRACK 30 AUDIO
    TITLE "0:"
    INDEX 01 00:31:10
  TRACK 31 AUDIO
    TITLE "2:cjc105_4915"
    INDEX 01 00:31:31
  TRACK 32 AUDIO
    TITLE "3:cjc105_4916"
    INDEX 01 00:32:66
  TRACK 33 AUDIO
    TITLE "0:"
    INDEX 01 00:34:26
  TRACK 34 AUDIO
    TITLE "2:cjc105_4917"
    INDEX 01 00:34:47
  TRACK 35 AUDIO
    TITLE "3:cjc105_4918"
    INDEX 01 00:36:40
  TRACK 36 AUDIO
    TITLE "0:"
    INDEX 01 00:38:37
  TRACK 37 AUDIO
    TITLE "2:cjc105_4919"
    INDEX 01 00:38:57
  TRACK 38 AUDIO
    TITLE "3:cjc105_4920"
    INDEX 01 00:40:05
  TRACK 39 AUDIO
    TITLE "0:"
    INDEX 01 00:41:40
  TRACK 40 AUDIO
    TITLE "2:cjc105_4921"
    INDEX 01 00:41:59
  TRACK 41 AUDIO
    TITLE "3:cjc105_4922"
    INDEX 01 00:43:09
  TRACK 42 AUDIO
    TITLE "0:"
    INDEX 01 00:44:32
  TRACK 43 AUDIO
    TITLE "2:cjc105_4923"
    INDEX 01 00:44:54
  TRACK 44 AUDIO
    TITLE "3:cjc105_4924"
    INDEX 01 00:46:04
  TRACK 45 AUDIO
    TITLE "0:"
    INDEX 01 00:47:17
  TRACK 46 AUDIO
    TITLE "2:cjc105_4925"
    INDEX 01 00:47:38
  TRACK 47 AUDIO
    TITLE "3:cjc105_4926"
    INDEX 01 00:48:55
  TRACK 48 AUDIO
    TITLE "0:"
    INDEX 01 00:50:03
  TRACK 49 AUDIO
    TITLE "2:cjc105_4927"
    INDEX 01 00:50:23
  TRACK 50 AUDIO
    TITLE "3:cjc105_4928"
    INDEX 01 00:51:28
  TRACK 51 AUDIO
    TITLE "0:"
    INDEX 01 00:52:39
  TRACK 52 AUDIO
    TITLE "2:cjc105_4929"
    INDEX 01 00:52:59
  TRACK 53 AUDIO
    TITLE "3:cjc105_4930"
    INDEX 01 00:54:27
  TRACK 54 AUDIO
    TITLE "0:"
    INDEX 01 00:55:63
  TRACK 55 AUDIO
    TITLE "2:cjc105_4931"
    INDEX 01 00:56:08
  TRACK 56 AUDIO
    TITLE "3:cjc105_4932"
    INDEX 01 00:57:43
  TRACK 57 AUDIO
    TITLE "0:"
    INDEX 01 00:59:16
  TRACK 58 AUDIO
    TITLE "2:cjc105_4933"
    INDEX 01 00:59:36
  TRACK 59 AUDIO
    TITLE "3:cjc105_4934"
    INDEX 01 01:00:43
  TRACK 60 AUDIO
    TITLE "0:"
    INDEX 01 01:02:32
  TRACK 61 AUDIO
    TITLE "2:cjc105_4935"
    INDEX 01 01:02:50
  TRACK 62 AUDIO
    TITLE "3:cjc105_4936"
    INDEX 01 01:03:65
  TRACK 63 AUDIO
    TITLE "0:"
    INDEX 01 01:05:07
  TRACK 64 AUDIO
    TITLE "2:cjc105_4937"
    INDEX 01 01:05:26
  TRACK 65 AUDIO
    TITLE "3:cjc105_4938"
    INDEX 01 01:07:00
  TRACK 66 AUDIO
    TITLE "0:"
    INDEX 01 01:08:15
  TRACK 67 AUDIO
    TITLE "2:cjc105_4939"
    INDEX 01 01:08:35
  TRACK 68 AUDIO
    TITLE "3:cjc105_4940"
    INDEX 01 01:09:65
  TRACK 69 AUDIO
    TITLE "0:"
    INDEX 01 01:11:23
  TRACK 70 AUDIO
    TITLE "2:cjc105_4941"
    INDEX 01 01:11:41
  TRACK 71 AUDIO
    TITLE "3:cjc105_4942"
    INDEX 01 01:13:22
  TRACK 72 AUDIO
    TITLE "0:"
    INDEX 01 01:14:57
  TRACK 73 AUDIO
    TITLE "2:cjc105_4943"
    INDEX 01 01:14:72
  TRACK 74 AUDIO
    TITLE "3:cjc105_4944"
    INDEX 01 01:16:67
  TRACK 75 AUDIO
    TITLE "0:"
    INDEX 01 01:18:25
  TRACK 76 AUDIO
    TITLE "2:cjc105_4945"
    INDEX 01 01:18:43
  TRACK 77 AUDIO
    TITLE "3:cjc105_4946"
    INDEX 01 01:20:16
  TRACK 78 AUDIO
    TITLE "0:"
    INDEX 01 01:21:49
  TRACK 79 AUDIO
    TITLE "2:cjc105_4947"
    INDEX 01 01:21:72
  TRACK 80 AUDIO
    TITLE "3:cjc105_4948"
    INDEX 01 01:23:32
  TRACK 81 AUDIO
    TITLE "0:"
    INDEX 01 01:24:61
  TRACK 82 AUDIO
    TITLE "2:cjc105_4949"
    INDEX 01 01:25:06
  TRACK 83 AUDIO
    TITLE "3:cjc105_4950"
    INDEX 01 01:26:48
  TRACK 84 AUDIO
    TITLE "0:"
    INDEX 01 01:28:12
  TRACK 85 AUDIO
    TITLE "2:cjc105_4951"
    INDEX 01 01:28:27
  TRACK 86 AUDIO
    TITLE "3:cjc105_4952"
    INDEX 01 01:29:72
  TRACK 87 AUDIO
    TITLE "0:"
    INDEX 01 01:31:63
  TRACK 88 AUDIO
    TITLE "2:cjc105_4953"
    INDEX 01 01:32:04
  TRACK 89 AUDIO
    TITLE "3:cjc105_4954"
    INDEX 01 01:33:60
  TRACK 90 AUDIO
    TITLE "0:"
    INDEX 01 01:35:20
  TRACK 91 AUDIO
    TITLE "2:cjc105_4955"
    INDEX 01 01:35:39
  TRACK 92 AUDIO
    TITLE "3:cjc105_4956"
    INDEX 01 01:36:74
  TRACK 93 AUDIO
    TITLE "0:"
    INDEX 01 01:38:38
  TRACK 94 AUDIO
    TITLE "2:cjc105_4957"
    INDEX 01 01:38:59
  TRACK 95 AUDIO
    TITLE "3:cjc105_4958"
    INDEX 01 01:40:36
  TRACK 96 AUDIO
    TITLE "0:"
    INDEX 01 01:42:04
  TRACK 97 AUDIO
    TITLE "2:cjc105_4959"
    INDEX 01 01:42:24
  TRACK 98 AUDIO
    TITLE "3:cjc105_4960"
    INDEX 01 01:43:33
  TRACK 99 AUDIO
    TITLE "0:"
    INDEX 01 01:44:54
  TRACK 100 AUDIO
    TITLE "2:cjc105_4961"
    INDEX 01 01:45:00
  TRACK 101 AUDIO
    TITLE "3:cjc105_4962"
    INDEX 01 01:46:00
  TRACK 102 AUDIO
    TITLE "0:"
    INDEX 01 01:47:05
  TRACK 103 AUDIO
    TITLE "2:cjc105_4963"
    INDEX 01 01:47:25
  TRACK 104 AUDIO
    TITLE "3:cjc105_4964"
    INDEX 01 01:49:10
  TRACK 105 AUDIO
    TITLE "0:"
    INDEX 01 01:50:47
  TRACK 106 AUDIO
    TITLE "2:cjc105_4965"
    INDEX 01 01:50:62
  TRACK 107 AUDIO
    TITLE "3:cjc105_4966"
    INDEX 01 01:52:04
  TRACK 108 AUDIO
    TITLE "0:"
    INDEX 01 01:53:25
  TRACK 109 AUDIO
    TITLE "2:cjc105_4967"
    INDEX 01 01:53:41
  TRACK 110 AUDIO
    TITLE "3:cjc105_4968"
    INDEX 01 01:55:03
  TRACK 111 AUDIO
    TITLE "0:"
    INDEX 01 01:56:26
  TRACK 112 AUDIO
    TITLE "2:cjc105_4969"
    INDEX 01 01:56:49
  TRACK 113 AUDIO
    TITLE "3:cjc105_4970"
    INDEX 01 01:57:62
  TRACK 114 AUDIO
    TITLE "0:"
    INDEX 01 01:59:12
  TRACK 115 AUDIO
    TITLE "2:cjc105_4971"
    INDEX 01 01:59:30
  TRACK 116 AUDIO
    TITLE "3:cjc105_4972"
    INDEX 01 02:00:51
  TRACK 117 AUDIO
    TITLE "0:"
    INDEX 01 02:01:54
